<svg width="588" height="142" viewBox="0 0 588 142" fill="none" xmlns="http://www.w3.org/2000/svg">
<rect x="2" y="2" width="584" height="138" rx="11" fill="#FF3131" stroke="black" stroke-width="4"/>
<path d="M345.254 106V108.5H347.754H369.246H371.746V106V83.7459H394H396.5V81.2459V59.7541V57.2541H394H371.746V35V32.5H369.246H347.754H345.254V35V57.2541H323H320.5V59.7541V81.2459V83.7459H323H345.254V106Z" fill="white" stroke="black" stroke-width="5"/>
<path d="M33 95.1862V45.8138H41.8324C44.9428 45.8138 47.4258 47.8484 49.2813 51.9176C51.1368 55.9641 52.0645 61.6609 52.0645 69.008V71.8225C52.0645 79.1695 51.1314 84.9003 49.2652 89.0146C47.4097 93.129 44.9321 95.1862 41.8324 95.1862H33ZM39.3227 85.7593H41.3015C42.5993 85.7593 43.6236 84.7533 44.3744 82.7414C45.1359 80.7068 45.5166 77.5871 45.5166 73.3823V67.6516C45.5166 63.4242 45.1359 60.3497 44.3744 58.4282C43.6129 56.5066 42.5886 55.5459 41.3015 55.5459H39.3227V85.7593Z" fill="white"/>
<path d="M54.6181 71.8903V69.1097C54.6181 60.8584 55.5833 54.7773 57.5139 50.8664C59.4445 46.9555 61.9221 45 64.9467 45C67.9713 45 70.4489 46.9555 72.3794 50.8664C74.3208 54.7773 75.2914 60.8584 75.2914 69.1097V71.8903C75.2914 80.1416 74.3208 86.2227 72.3794 90.1336C70.4489 94.0445 67.9713 96 64.9467 96C61.9221 96 59.4445 94.0445 57.5139 90.1336C55.5833 86.2227 54.6181 80.1416 54.6181 71.8903ZM61.3429 75.3491C61.3429 79.3504 61.6593 82.2214 62.2921 83.9621C62.9357 85.7028 63.8205 86.5731 64.9467 86.5731C66.0729 86.5731 66.9577 85.7028 67.6012 83.9621C68.2448 82.2214 68.5665 79.3504 68.5665 75.3491V65.7187C68.5665 61.74 68.2448 58.8916 67.6012 57.1735C66.9577 55.4328 66.0729 54.5625 64.9467 54.5625C63.8205 54.5625 62.9357 55.4328 62.2921 57.1735C61.6593 58.8916 61.3429 61.74 61.3429 65.7187V75.3491Z" fill="white"/>
<path d="M78.4241 95.1862V45.8138H84.8916V63.1755L91.1338 45.8138H97.7943L84.8916 79.4182V95.1862H78.4241ZM91.3269 95.1862L84.7146 72.0259L88.6401 61.9209L98.7435 95.1862H91.3269Z" fill="white"/>
<path d="M98.6586 56.3597V45.8138H117.691V56.3597H111.449V95.1862H104.917V56.3597H98.6586Z" fill="white"/>
<path d="M120.019 95.1862V45.8138H136.188V56.3597H126.278V65.3797H134.788V74.8743H126.278V84.9116H136.413V95.1862H120.019Z" fill="white"/>
<path d="M139.015 95.1862V45.8138H149.054C151.532 45.8138 153.5 47.2606 154.958 50.1543C156.417 53.0253 157.146 56.9136 157.146 61.8191C157.146 66.8604 156.379 70.8956 154.846 73.9249C153.312 76.9541 151.36 78.4687 148.99 78.4687H145.482V95.1862H139.015ZM145.482 69.4827H147.815C148.845 69.4827 149.569 68.8497 149.987 67.5838C150.416 66.2952 150.631 64.5884 150.631 62.4634C150.631 60.3384 150.416 58.643 149.987 57.377C149.569 56.0884 148.845 55.4441 147.815 55.4441H145.482V69.4827ZM151.065 95.1862L146.673 73.5519L152.658 70.873L158.16 95.1862H151.065Z" fill="white"/>
<path d="M167.884 95.1862V87.0479L176.395 68.7367C177.049 67.2221 177.591 65.7301 178.02 64.2606C178.449 62.7686 178.663 61.1975 178.663 59.5472C178.663 57.8065 178.481 56.5293 178.116 55.7154C177.762 54.9016 177.248 54.4947 176.572 54.4947C175.885 54.4947 175.344 55.0033 174.947 56.0206C174.561 57.0153 174.368 58.9029 174.368 61.6835V63.1755H167.852V60.2254C167.852 55.885 168.646 52.268 170.233 49.3743C171.82 46.4581 173.955 45 176.636 45C179.511 45 181.65 46.266 183.055 48.7979C184.46 51.3298 185.168 54.7207 185.179 58.9707C185.179 62.2487 184.83 65.131 184.133 67.6177C183.447 70.0818 182.53 72.5233 181.382 74.9422L177.151 84.6064H185.678V95.1862H167.884Z" fill="white"/>
<path d="M196.855 95.1862V82.6057L197.015 81.6902V62.5312H196.871L192.865 75.7221H199.155L199.831 75.4169H205.301V85.6915H186.912V76.4342L197.418 45.8138H202.856V95.1862H196.855Z" fill="white"/>
<path d="M215.283 78.9435V76.875H221.155V80.266C221.155 82.5718 221.332 84.2108 221.686 85.1828C222.05 86.1323 222.603 86.607 223.343 86.607C224.061 86.607 224.603 86.0984 224.968 85.0811C225.343 84.0638 225.531 82.2553 225.531 79.6556V45.8138H232.014V77.8584C232.014 83.6682 231.307 88.1443 229.891 91.2866C228.486 94.4289 226.405 96 223.649 96C220.967 96 218.903 94.6436 217.455 91.9309C216.007 89.1955 215.283 84.8664 215.283 78.9435Z" fill="white"/>
<path d="M233.2 95.1862L241.148 45.746H248.211L256.11 95.1862H249.578L244.897 63.4129C244.768 62.5539 244.666 61.7739 244.591 61.0731C244.516 60.3723 244.457 59.7846 244.414 59.3098H244.334C244.291 59.7846 244.226 60.3723 244.14 61.0731C244.065 61.7739 243.969 62.5539 243.851 63.4129L239.346 95.1862H233.2ZM238.14 86.1662L239.121 77.0785H249.852L250.897 86.1662H238.14Z" fill="white"/>
<path d="M257.827 95.1862V45.8138H266.676L270.81 72.2633C270.917 73.0545 271.014 73.8118 271.1 74.5352C271.196 75.236 271.282 76.016 271.357 76.875H271.422C271.497 76.016 271.577 75.2247 271.663 74.5013C271.759 73.7779 271.861 73.0319 271.969 72.2633L276.103 45.8138H285V95.1862H278.629V67.9907C278.629 67.2221 278.629 66.363 278.629 65.4136C278.64 64.4641 278.661 63.6051 278.693 62.8364H278.597C278.533 63.6277 278.452 64.4867 278.356 65.4136C278.259 66.3404 278.157 67.1995 278.05 67.9907L273.98 95.1862H268.317L264.246 67.9907C264.139 67.1995 264.032 66.3178 263.924 65.3457C263.817 64.3511 263.742 63.5146 263.699 62.8364H263.603C263.624 63.492 263.64 64.3285 263.651 65.3457C263.672 66.3404 263.683 67.2221 263.683 67.9907V95.1862H257.827Z" fill="white"/>
<rect x="15.5" y="18.5" width="287" height="105" rx="44.5" stroke="white" stroke-width="7"/>
<path d="M411.674 65L415.492 25.4688H428.901L432.652 65H425.173L424.611 58.6211H419.85L419.355 65H411.674ZM420.411 52.3096H424.005L422.275 32.207H421.916L420.411 52.3096ZM435.078 65V25.4688H447.207C449.229 25.4688 450.756 25.9329 451.789 26.8613C452.822 27.7747 453.511 29.0625 453.855 30.7246C454.215 32.3717 454.395 34.3109 454.395 36.542C454.395 38.6982 454.118 40.4202 453.563 41.708C453.024 42.9958 451.999 43.8867 450.486 44.3809C451.729 44.6354 452.598 45.2568 453.092 46.2451C453.601 47.2184 453.855 48.4837 453.855 50.041V65H446.062V49.5244C446.062 48.3714 445.822 47.6602 445.343 47.3906C444.879 47.1061 444.122 46.9639 443.074 46.9639V65H435.078ZM443.119 40.1133H445.028C446.121 40.1133 446.668 38.9229 446.668 36.542C446.668 34.9997 446.548 33.9889 446.309 33.5098C446.069 33.0306 445.62 32.791 444.961 32.791H443.119V40.1133ZM460.639 65L455.765 25.4463H463.289L466.187 52.3545L468.77 25.4463H476.294L471.42 65H460.639ZM478.248 65V25.4688H485.885V65H478.248Z" fill="white"/>
<path d="M436.752 116V76.4688H448.791L452.115 100.569L455.417 76.4688H467.568V116H460.336V87.5195L455.799 116H448.701L443.895 87.5195V116H436.752ZM471.072 116V76.4688H486.885V84.1055H479.113V91.8096H486.57V99.2441H479.113V108.296H487.401V116H471.072ZM490.029 116V76.4688H500.9C503.745 76.4688 505.887 77.2624 507.324 78.8496C508.762 80.4219 509.48 82.7279 509.48 85.7676V104.275C509.48 108.019 508.822 110.909 507.504 112.945C506.201 114.982 503.91 116 500.631 116H490.029ZM497.98 109.015H499.351C500.803 109.015 501.529 108.311 501.529 106.903V86.5088C501.529 85.1911 501.35 84.3451 500.99 83.9707C500.646 83.5814 499.935 83.3867 498.856 83.3867H497.98V109.015ZM512.355 116V76.4688H519.992V116H512.355ZM523.137 116V76.4688H530.953V92.3037L534.637 76.4688H542.588L538.163 94.5723L543.509 116H535.311L530.998 96.8633V116H523.137ZM543.801 116L547.619 76.4688H561.028L564.779 116H557.3L556.738 109.621H551.977L551.482 116H543.801ZM552.538 103.31H556.132L554.402 83.207H554.043L552.538 103.31Z" fill="white"/>
</svg>
