 <svg width="143" height="114" viewBox="0 0 143 114" fill="none"
                                        xmlns="http://www.w3.org/2000/svg">
                                        <path
                                            d="M65.2298 36.766C65.2236 34.0046 62.98 31.7711 60.2186 31.7773C57.4571 31.7835 55.2236 34.0271 55.2298 36.7885L65.2298 36.766ZM60.3897 108.024L55.3897 108.036C55.395 110.393 57.0458 112.426 59.3515 112.916C61.6573 113.405 63.9917 112.218 64.954 110.066L60.3897 108.024ZM83.0993 57.2478L83.0553 52.248C81.0996 52.2652 79.3334 53.4211 78.535 55.2065L83.0993 57.2478ZM137.678 61.7679C140.439 61.7436 142.658 59.4854 142.634 56.7241C142.61 53.9628 140.352 51.744 137.59 51.7683L137.678 61.7679ZM25.3658 53.8094V58.8094C27.3134 58.8094 29.0837 57.6785 29.9025 55.9114L25.3658 53.8094ZM47.5956 5.83148L52.5952 5.7677C52.5654 3.43311 50.9239 1.42992 48.6406 0.941917C46.3574 0.453918 44.0404 1.61104 43.0589 3.72948L47.5956 5.83148ZM43.6355 87.3778C43.6707 90.139 45.9377 92.3488 48.6989 92.3136C51.4601 92.2784 53.6699 90.0114 53.6347 87.2502L43.6355 87.3778ZM55.2298 36.7885L55.3897 108.036L65.3897 108.013L65.2298 36.766L55.2298 36.7885ZM64.954 110.066L87.6636 59.2892L78.535 55.2065L55.8254 105.983L64.954 110.066ZM83.1432 62.2476L137.678 61.7679L137.59 51.7683L83.0553 52.248L83.1432 62.2476ZM0.657166 58.8094H25.3658V48.8094H0.657166V58.8094ZM29.9025 55.9114L52.1323 7.93348L43.0589 3.72948L20.8291 51.7074L29.9025 55.9114ZM42.596 5.89526L43.6355 87.3778L53.6347 87.2502L52.5952 5.7677L42.596 5.89526Z"
                                            fill="url(#paint0_linear_9_102)" />
                                        <path
                                            d="M60.8655 5.4627C62.0844 5.4627 63.1496 5.70429 64.0611 6.18748C64.9726 6.67068 65.6754 7.35154 66.1696 8.23007C66.6747 9.09761 66.9273 10.1024 66.9273 11.2445C66.9273 12.3756 66.6747 13.3804 66.1696 14.259C65.6754 15.1375 64.9671 15.8184 64.0446 16.3016C63.1332 16.7847 62.0734 17.0263 60.8655 17.0263H56.5332V5.4627H60.8655ZM60.6843 14.5884C61.7495 14.5884 62.5786 14.2974 63.1716 13.7154C63.7646 13.1334 64.0611 12.3097 64.0611 11.2445C64.0611 10.1793 63.7646 9.35019 63.1716 8.75718C62.5786 8.16418 61.7495 7.86767 60.6843 7.86767H59.35V14.5884H60.6843Z"
                                            fill="black" />
                                        <path
                                            d="M73.9703 17.1416C72.8831 17.1416 71.8838 16.8891 70.9723 16.3839C70.0718 15.8788 69.3525 15.1759 68.8144 14.2754C68.2873 13.364 68.0238 12.3427 68.0238 11.2116C68.0238 10.0805 68.2873 9.06467 68.8144 8.16418C69.3525 7.26368 70.0718 6.56086 70.9723 6.05571C71.8838 5.55055 72.8831 5.29797 73.9703 5.29797C75.0575 5.29797 76.0513 5.55055 76.9518 6.05571C77.8633 6.56086 78.5771 7.26368 79.0932 8.16418C79.6203 9.06467 79.8839 10.0805 79.8839 11.2116C79.8839 12.3427 79.6203 13.364 79.0932 14.2754C78.5661 15.1759 77.8523 15.8788 76.9518 16.3839C76.0513 16.8891 75.0575 17.1416 73.9703 17.1416ZM73.9703 14.572C74.8928 14.572 75.6285 14.2645 76.1776 13.6495C76.7377 13.0345 77.0177 12.2219 77.0177 11.2116C77.0177 10.1903 76.7377 9.37764 76.1776 8.77366C75.6285 8.15868 74.8928 7.8512 73.9703 7.8512C73.0369 7.8512 72.2901 8.15319 71.7301 8.75718C71.181 9.36117 70.9064 10.1793 70.9064 11.2116C70.9064 12.2329 71.181 13.051 71.7301 13.666C72.2901 14.27 73.0369 14.572 73.9703 14.572Z"
                                            fill="black" />
                                        <path
                                            d="M88.1552 17.0263L84.2678 11.9199V17.0263H81.451V5.4627H84.2678V10.5362L88.1223 5.4627H91.4333L86.9528 11.1292L91.598 17.0263H88.1552Z"
                                            fill="black" />
                                        <path
                                            d="M101.255 5.4627V7.71942H98.1913V17.0263H95.3745V7.71942H92.3107V5.4627H101.255Z"
                                            fill="black" />
                                        <path
                                            d="M105.486 7.71942V10.0585H109.258V12.2329H105.486V14.7696H109.752V17.0263H102.669V5.4627H109.752V7.71942H105.486Z"
                                            fill="black" />
                                        <path
                                            d="M117.478 17.0263L115.073 12.6611H114.397V17.0263H111.581V5.4627H116.308C117.22 5.4627 117.994 5.62193 118.631 5.9404C119.279 6.25886 119.762 6.69813 120.08 7.25819C120.399 7.80727 120.558 8.42224 120.558 9.1031C120.558 9.87182 120.339 10.5582 119.899 11.1622C119.471 11.7661 118.834 12.1944 117.988 12.447L120.657 17.0263H117.478ZM114.397 10.668H116.144C116.66 10.668 117.044 10.5417 117.297 10.2891C117.56 10.0365 117.692 9.67964 117.692 9.21841C117.692 8.77915 117.56 8.43323 117.297 8.18065C117.044 7.92807 116.66 7.80178 116.144 7.80178H114.397V10.668Z"
                                            fill="black" />
                                        <path
                                            d="M56.1543 29.0031C56.5277 28.7066 56.6979 28.5693 56.665 28.5913C57.7412 27.7018 58.5868 26.9715 59.2017 26.4004C59.8277 25.8294 60.3548 25.2309 60.7831 24.6049C61.2114 23.979 61.4255 23.3695 61.4255 22.7765C61.4255 22.3263 61.3212 21.9748 61.1125 21.7223C60.9039 21.4697 60.5909 21.3434 60.1736 21.3434C59.7563 21.3434 59.4269 21.5026 59.1853 21.8211C58.9547 22.1286 58.8393 22.5678 58.8393 23.1389H56.1214C56.1434 22.2055 56.341 21.4258 56.7144 20.7998C57.0988 20.1739 57.5984 19.7126 58.2134 19.4161C58.8393 19.1196 59.5312 18.9714 60.2889 18.9714C61.5957 18.9714 62.5786 19.3063 63.2375 19.9762C63.9074 20.6461 64.2423 21.5191 64.2423 22.5953C64.2423 23.7703 63.8415 24.863 63.0398 25.8733C62.2382 26.8726 61.2169 27.85 59.9759 28.8054H64.4235V31.0951H56.1543V29.0031Z"
                                            fill="black" />
                                        <path
                                            d="M66.8003 29.1184V26.8452L72.0056 19.3996H75.1518V26.6805H76.5026V29.1184H75.1518V31.2598H72.335V29.1184H66.8003ZM72.5327 22.4965L69.7653 26.6805H72.5327V22.4965Z"
                                            fill="black" />
                                        <path
                                            d="M91.0423 19.6962V27.57C91.0423 28.7889 90.6964 29.7279 90.0045 30.3868C89.3237 31.0457 88.4012 31.3751 87.2372 31.3751C86.0182 31.3751 85.0408 31.0292 84.3051 30.3373C83.5693 29.6455 83.2014 28.6626 83.2014 27.3888H86.0017C86.0017 27.872 86.1006 28.2399 86.2982 28.4924C86.4959 28.734 86.7814 28.8548 87.1548 28.8548C87.4952 28.8548 87.7588 28.745 87.9455 28.5254C88.1322 28.3057 88.2255 27.9873 88.2255 27.57V19.6962H91.0423Z"
                                            fill="black" />
                                        <path
                                            d="M101.587 29.2172H97.2709L96.5791 31.2598H93.6305L97.8145 19.6962H101.076L105.26 31.2598H102.279L101.587 29.2172ZM100.862 27.0429L99.4288 22.8094L98.0122 27.0429H100.862Z"
                                            fill="black" />
                                        <path
                                            d="M120.7 19.6962V31.2598H117.883V24.3249L115.297 31.2598H113.024L110.421 24.3084V31.2598H107.604V19.6962H110.932L114.177 27.7018L117.389 19.6962H120.7Z"
                                            fill="black" />
                                        <defs>
                                            <linearGradient id="paint0_linear_9_102" x1="69.1457" y1="5.83148"
                                                x2="69.1457" y2="108.024" gradientUnits="userSpaceOnUse">
                                                <stop stop-color="#3E0025" />
                                                <stop offset="0.541667" stop-color="#E041D3" />
                                                <stop offset="1" stop-color="#3E0025" />
                                            </linearGradient>
                                        </defs>
                                    </svg>