<svg width="694" height="538" viewBox="0 0 694 538" fill="none" xmlns="http://www.w3.org/2000/svg">
<path d="M310.369 169.191C310.349 160.63 303.394 153.706 294.834 153.725C286.273 153.745 279.349 160.7 279.369 169.26L310.369 169.191ZM295.66 522L280.16 522.035C280.177 529.342 285.295 535.646 292.443 537.162C299.591 538.679 306.828 534.997 309.81 528.326L295.66 522ZM408.067 270.584L407.93 255.084C401.867 255.138 396.391 258.722 393.916 264.257L408.067 270.584ZM678.136 283.708C686.696 283.632 693.575 276.632 693.499 268.072C693.424 259.512 686.424 252.633 677.864 252.709L678.136 283.708ZM122.301 253.559V269.059C128.339 269.059 133.828 265.552 136.366 260.073L122.301 253.559ZM232.333 16L247.831 15.8023C247.739 8.56471 242.65 2.35458 235.571 0.842145C228.493 -0.670288 221.31 2.91771 218.268 9.48562L232.333 16ZM221.979 419.652C222.089 428.211 229.116 435.062 237.676 434.953C246.235 434.843 253.086 427.816 252.977 419.256L221.979 419.652ZM279.369 169.26L280.16 522.035L311.16 521.965L310.369 169.191L279.369 169.26ZM309.81 528.326L422.217 276.91L393.916 264.257L281.51 515.674L309.81 528.326ZM408.203 286.083L678.136 283.708L677.864 252.709L407.93 255.084L408.203 286.083ZM0 269.059H122.301V238.059H0V269.059ZM136.366 260.073L246.397 22.5144L218.268 9.48562L108.237 247.044L136.366 260.073ZM216.834 16.1977L221.979 419.652L252.977 419.256L247.831 15.8023L216.834 16.1977Z" fill="white" fill-opacity="0.5"/>
</svg>
