<svg width="384" height="86" viewBox="0 0 384 86" fill="none" xmlns="http://www.w3.org/2000/svg">
<g opacity="0.3">
<path d="M229.195 65.7826V20.6995H242.841V65.7826H229.195ZM213.477 50.0644V36.4176H258.56V50.0644H213.477Z" fill="white" fill-opacity="0.5"/>
<path d="M226.695 65.7826V68.2826H229.195H242.841H245.341V65.7826V52.5644H258.56H261.06V50.0644V36.4176V33.9176H258.56H245.341V20.6995V18.1995H242.841H229.195H226.695V20.6995V33.9176H213.477H210.977V36.4176V50.0644V52.5644H213.477H226.695V65.7826Z" stroke="black" stroke-opacity="0.3" stroke-width="5"/>
<path d="M29.3345 58.9161V27.566H34.9428C36.9178 27.566 38.4944 28.8579 39.6726 31.4417C40.8508 34.0111 41.4399 37.6284 41.4399 42.2936V44.0807C41.4399 48.7459 40.8474 52.3848 39.6624 54.9973C38.4842 57.6098 36.911 58.9161 34.9428 58.9161H29.3345ZM33.3492 52.9303H34.6057C35.4298 52.9303 36.0802 52.2915 36.5569 51.0139C37.0404 49.722 37.2822 47.7411 37.2822 45.0712V41.4323C37.2822 38.7481 37.0404 36.7959 36.5569 35.5757C36.0734 34.3556 35.423 33.7455 34.6057 33.7455H33.3492V52.9303Z" fill="white" fill-opacity="0.5"/>
<path d="M43.0614 44.1238V42.3582C43.0614 37.1188 43.6743 33.2575 44.9002 30.7742C46.126 28.2909 47.6992 27.0492 49.6198 27.0492C51.5403 27.0492 53.1135 28.2909 54.3394 30.7742C55.572 33.2575 56.1884 37.1188 56.1884 42.3582V44.1238C56.1884 49.3632 55.572 53.2245 54.3394 55.7078C53.1135 58.1912 51.5403 59.4328 49.6198 59.4328C47.6992 59.4328 46.126 58.1912 44.9002 55.7078C43.6743 53.2245 43.0614 49.3632 43.0614 44.1238ZM47.3315 46.32C47.3315 48.8608 47.5324 50.6838 47.9342 51.7891C48.3428 52.8944 48.9047 53.447 49.6198 53.447C50.3349 53.447 50.8967 52.8944 51.3053 51.7891C51.714 50.6838 51.9183 48.8608 51.9183 46.32V40.205C51.9183 37.6787 51.714 35.87 51.3053 34.7791C50.8967 33.6738 50.3349 33.1211 49.6198 33.1211C48.9047 33.1211 48.3428 33.6738 47.9342 34.7791C47.5324 35.87 47.3315 37.6787 47.3315 40.205V46.32Z" fill="white" fill-opacity="0.5"/>
<path d="M58.1776 58.9161V27.566H62.2842V38.5902L66.2479 27.566H70.4771L62.2842 48.9038V58.9161H58.1776ZM66.3705 58.9161L62.1719 44.2099L64.6645 37.7935L71.0798 58.9161H66.3705Z" fill="white" fill-opacity="0.5"/>
<path d="M71.0259 34.2623V27.566H83.1109V34.2623H79.1473V58.9161H74.9998V34.2623H71.0259Z" fill="white" fill-opacity="0.5"/>
<path d="M84.5893 58.9161V27.566H94.856V34.2623H88.5632V39.9897H93.9672V46.0186H88.5632V52.392H94.999V58.9161H84.5893Z" fill="white" fill-opacity="0.5"/>
<path d="M96.6511 58.9161V27.566H103.026C104.599 27.566 105.849 28.4846 106.775 30.322C107.701 32.145 108.164 34.614 108.164 37.7289C108.164 40.9299 107.677 43.4922 106.703 45.4157C105.729 47.3392 104.49 48.301 102.985 48.301H100.758V58.9161H96.6511ZM100.758 42.5951H102.239C102.893 42.5951 103.353 42.1931 103.618 41.3893C103.891 40.5711 104.027 39.4873 104.027 38.138C104.027 36.7887 103.891 35.7121 103.618 34.9083C103.353 34.0901 102.893 33.6809 102.239 33.6809H100.758V42.5951ZM104.303 58.9161L101.514 45.1789L105.314 43.4779L108.808 58.9161H104.303Z" fill="white" fill-opacity="0.5"/>
<path d="M114.982 58.9161V53.7485L120.386 42.1214C120.802 41.1596 121.146 40.2122 121.418 39.2792C121.691 38.3318 121.827 37.3342 121.827 36.2863C121.827 35.181 121.711 34.37 121.479 33.8532C121.255 33.3364 120.928 33.0781 120.499 33.0781C120.063 33.0781 119.719 33.401 119.467 34.047C119.222 34.6786 119.099 35.8772 119.099 37.6428V38.5902H114.962V36.7169C114.962 33.9609 115.466 31.6641 116.474 29.8268C117.482 27.9751 118.837 27.0492 120.54 27.0492C122.365 27.0492 123.723 27.853 124.616 29.4607C125.508 31.0684 125.957 33.2216 125.964 35.9202C125.964 38.0016 125.743 39.8318 125.3 41.4108C124.864 42.9755 124.282 44.5257 123.553 46.0617L120.867 52.1982H126.281V58.9161H114.982Z" fill="white" fill-opacity="0.5"/>
<path d="M133.378 58.9161V50.9278L133.48 50.3465V38.1811H133.388L130.844 46.5569H134.839L135.268 46.3631H138.741V52.8872H127.065V47.0091L133.735 27.566H137.188V58.9161H133.378Z" fill="white" fill-opacity="0.5"/>
<path d="M145.079 48.6024V47.289H148.808V49.4421C148.808 50.9063 148.92 51.947 149.145 52.5642C149.376 53.1671 149.727 53.4686 150.197 53.4686C150.653 53.4686 150.997 53.1456 151.229 52.4996C151.467 51.8537 151.586 50.7053 151.586 49.0546V27.566H155.703V47.9134C155.703 51.6025 155.254 54.4447 154.355 56.4399C153.463 58.4352 152.141 59.4328 150.391 59.4328C148.689 59.4328 147.378 58.5716 146.458 56.849C145.539 55.1121 145.079 52.3633 145.079 48.6024Z" fill="white" fill-opacity="0.5"/>
<path d="M156.456 58.9161L161.503 27.5229H165.988L171.003 58.9161H166.856L163.883 38.7409C163.801 38.1954 163.737 37.7002 163.689 37.2552C163.641 36.8102 163.604 36.437 163.577 36.1356H163.526C163.498 36.437 163.457 36.8102 163.403 37.2552C163.355 37.7002 163.294 38.1954 163.219 38.7409L160.359 58.9161H156.456ZM159.593 53.1886L160.216 47.4182H167.03L167.694 53.1886H159.593Z" fill="white" fill-opacity="0.5"/>
<path d="M172.094 58.9161V27.566H177.712L180.338 44.3607C180.406 44.8631 180.467 45.3439 180.521 45.8033C180.583 46.2483 180.637 46.7435 180.685 47.289H180.726C180.773 46.7435 180.825 46.2411 180.879 45.7817C180.94 45.3224 181.005 44.8487 181.073 44.3607L183.698 27.566H189.348V58.9161H185.302V41.6477C185.302 41.1596 185.302 40.6141 185.302 40.0113C185.309 39.4084 185.323 38.8629 185.343 38.3749H185.282C185.241 38.8773 185.19 39.4227 185.129 40.0113C185.067 40.5998 185.003 41.1453 184.935 41.6477L182.35 58.9161H178.754L176.17 41.6477C176.101 41.1453 176.033 40.5854 175.965 39.9682C175.897 39.3366 175.85 38.8055 175.822 38.3749H175.761C175.775 38.7911 175.785 39.3222 175.792 39.9682C175.805 40.5998 175.812 41.1596 175.812 41.6477V58.9161H172.094Z" fill="white" fill-opacity="0.5"/>
<rect x="18" y="10" width="182.682" height="67.117" rx="29" stroke="white" stroke-opacity="0.5" stroke-width="4"/>
<path d="M269.782 39.7487L272.207 14.6474H280.721L283.103 39.7487H278.354L277.997 35.6982H274.974L274.66 39.7487H269.782ZM275.33 31.6906H277.612L276.514 18.926H276.286L275.33 31.6906Z" fill="white" fill-opacity="0.5"/>
<path d="M284.643 39.7487V14.6474H292.345C293.628 14.6474 294.598 14.9421 295.254 15.5316C295.91 16.1116 296.348 16.9293 296.566 17.9847C296.795 19.0306 296.909 20.2619 296.909 21.6786C296.909 23.0478 296.733 24.1412 296.381 24.9589C296.039 25.7766 295.387 26.3423 294.427 26.6561C295.216 26.8177 295.768 27.2123 296.082 27.8398C296.405 28.4578 296.566 29.2613 296.566 30.2501V39.7487H291.617V29.9221C291.617 29.19 291.465 28.7383 291.161 28.5672C290.866 28.3865 290.386 28.2962 289.721 28.2962V39.7487H284.643ZM289.749 23.9463H290.961C291.656 23.9463 292.003 23.1904 292.003 21.6786C292.003 20.6993 291.927 20.0575 291.774 19.7532C291.622 19.449 291.337 19.2968 290.919 19.2968H289.749V23.9463Z" fill="white" fill-opacity="0.5"/>
<path d="M300.874 39.7487L297.779 14.6331H302.557L304.396 31.7191L306.036 14.6331H310.814L307.719 39.7487H300.874Z" fill="white" fill-opacity="0.5"/>
<path d="M312.055 39.7487V14.6474H316.904V39.7487H312.055Z" fill="white" fill-opacity="0.5"/>
<path d="M285.706 72.1323V47.031H293.351L295.461 62.3342L297.558 47.031H305.274V72.1323H300.681V54.048L297.8 72.1323H293.294L290.242 54.048V72.1323H285.706Z" fill="white" fill-opacity="0.5"/>
<path d="M307.499 72.1323V47.031H317.539V51.8801H312.604V56.772H317.339V61.4928H312.604V67.2404H317.867V72.1323H307.499Z" fill="white" fill-opacity="0.5"/>
<path d="M319.536 72.1323V47.031H326.439C328.245 47.031 329.605 47.5349 330.518 48.5428C331.43 49.5411 331.887 51.0054 331.887 52.9355V64.6875C331.887 67.0645 331.468 68.8995 330.632 70.1926C329.805 71.4857 328.35 72.1323 326.268 72.1323H319.536ZM324.585 67.6968H325.455C326.377 67.6968 326.838 67.2499 326.838 66.3561V53.4062C326.838 52.5695 326.724 52.0322 326.496 51.7945C326.277 51.5473 325.825 51.4237 325.141 51.4237H324.585V67.6968Z" fill="white" fill-opacity="0.5"/>
<path d="M333.712 72.1323V47.031H338.561V72.1323H333.712Z" fill="white" fill-opacity="0.5"/>
<path d="M340.558 72.1323V47.031H345.521V57.0858L347.86 47.031H352.909L350.1 58.5263L353.494 72.1323H348.288L345.55 59.981V72.1323H340.558Z" fill="white" fill-opacity="0.5"/>
<path d="M353.679 72.1323L356.104 47.031H364.618L367 72.1323H362.251L361.894 68.0819H358.871L358.557 72.1323H353.679ZM359.227 64.0742H361.509L360.411 51.3096H360.183L359.227 64.0742Z" fill="white" fill-opacity="0.5"/>
</g>
</svg>
